<svg width="36" height="36" viewBox="0 0 36 36" fill="none" xmlns="http://www.w3.org/2000/svg">
<g filter="url(#filter0_d_642_1057)">
<circle cx="18" cy="14" r="14" fill="#1E1F28"/>
<path d="M16.9055 9.77211L22.811 13.2717C22.9461 13.3515 23.0568 13.4598 23.1333 13.5869C23.2099 13.7139 23.25 13.8558 23.25 14C23.25 14.1442 23.2099 14.2861 23.1333 14.4131C23.0568 14.5402 22.9461 14.6485 22.811 14.7283L16.9055 18.2279C16.7573 18.3158 16.5849 18.3663 16.4069 18.374C16.2289 18.3816 16.0518 18.3462 15.8947 18.2714C15.7376 18.1966 15.6062 18.0853 15.5147 17.9494C15.4232 17.8135 15.3749 17.658 15.375 17.4995V10.5005C15.3749 10.342 15.4232 10.1865 15.5147 10.0506C15.6062 9.91466 15.7376 9.80336 15.8947 9.72858C16.0518 9.6538 16.2289 9.61836 16.4069 9.62603C16.5849 9.63369 16.7573 9.68418 16.9055 9.77211Z" fill="url(#paint0_linear_642_1057)"/>
</g>
<defs>
<filter id="filter0_d_642_1057" x="0" y="0" width="36" height="36" filterUnits="userSpaceOnUse" color-interpolation-filters="sRGB">
<feFlood flood-opacity="0" result="BackgroundImageFix"/>
<feColorMatrix in="SourceAlpha" type="matrix" values="0 0 0 0 0 0 0 0 0 0 0 0 0 0 0 0 0 0 127 0" result="hardAlpha"/>
<feOffset dy="4"/>
<feGaussianBlur stdDeviation="2"/>
<feComposite in2="hardAlpha" operator="out"/>
<feColorMatrix type="matrix" values="0 0 0 0 0 0 0 0 0 0 0 0 0 0 0 0 0 0 0.25 0"/>
<feBlend mode="normal" in2="BackgroundImageFix" result="effect1_dropShadow_642_1057"/>
<feBlend mode="normal" in="SourceGraphic" in2="effect1_dropShadow_642_1057" result="shape"/>
</filter>
<linearGradient id="paint0_linear_642_1057" x1="15.375" y1="14.0847" x2="23.4925" y2="14.2299" gradientUnits="userSpaceOnUse">
<stop stop-color="#9F55FF"/>
<stop offset="1" stop-color="#FF46B9"/>
</linearGradient>
</defs>
</svg>
